<?xml version="1.0" encoding="UTF-8"?>
<!DOCTYPE svg PUBLIC "-//W3C//DTD SVG 1.1//EN" "http://www.w3.org/Graphics/SVG/1.1/DTD/svg11.dtd">
<!-- Creator: CorelDRAW 2020 (64 Bit) -->
<svg xmlns="http://www.w3.org/2000/svg" xml:space="preserve" width="91.44mm" height="91.44mm" version="1.1" style="shape-rendering:geometricPrecision; text-rendering:geometricPrecision; image-rendering:optimizeQuality; fill-rule:evenodd; clip-rule:evenodd"
viewBox="0 0 9144 9144"
 xmlns:xlink="http://www.w3.org/1999/xlink"
 xmlns:xodm="http://www.corel.com/coreldraw/odm/2003">
 <defs>
  <style type="text/css">
   <![CDATA[
    .fil0 {fill:#131313}
    .fil2 {fill:#969696}
    .fil1 {fill:#BABABA}
   ]]>
  </style>
 </defs>
 <g id="Camada_x0020_1">
  <metadata id="CorelCorpID_0Corel-Layer"/>
  <g id="_2392263984352">
   <path class="fil0" d="M3136.85 2765.1c-174.83,-37.88 -158.03,66.29 -143.62,208.66 18.26,180.41 69.03,642.71 206.03,762.97 44.62,39.17 29.23,90.28 35.88,160.69 22.06,233.56 79.57,411.21 179.63,591.58 167.16,301.26 203.39,178.31 198.97,582.59 64.98,-34.15 124.74,-76.82 196.81,-114.74 390.8,-205.63 880.45,-239.54 1300.02,-95.37 266.92,91.72 291.98,151.61 423.95,209.79 1.96,-139.16 -21.4,-226.49 43.1,-340.45 151.52,-267.77 293.5,-369.12 335.78,-830.83 4.72,-51.49 -4.8,-124.39 28.7,-158.08 40.79,-41.02 51.47,-54.14 79.69,-118.03 71.24,-161.28 113.38,-455.35 131.91,-637.61 14.45,-142.05 37.58,-266.27 -142.97,-220.77 1.02,-560.59 12.63,-816.63 -325.93,-1232.44 -104.41,-128.24 -298.42,-250.15 -458.74,-321.73 -621.17,-277.37 -1398.12,-109.88 -1803.74,367.75l-118 173.69c-104.59,178.12 -154.54,410.05 -167.15,619.69 -8.16,135.76 5.54,264.73 -0.32,392.64z"/>
   <path class="fil0" d="M6036.7 5815.94l-205.99 239.72c-26.69,32.61 -57.32,43.74 -50.06,89.56 33.72,212.7 72.58,299.51 28.18,555.76 -183.62,1059.72 -1506.85,1414.88 -2185.22,615.88 -174.15,-205.11 -331.04,-545.78 -301.37,-921.65 23.61,-299.23 175.45,-643.37 391.1,-830.76 207.16,-180.02 479.99,-349.39 878.31,-342.74 244.02,4.07 503.05,86.34 690.67,220.09 32.71,23.33 56.93,40.73 85.41,64.84 15.26,12.92 26.13,19.77 42.11,33.22l46.53 40.8c15.14,-14.74 45.12,-45.85 59.96,-65.03 20.04,-25.9 37.23,-41.28 56.27,-65.95 24.88,-32.22 97.71,-108.09 109.73,-135.09 -510.09,-507.59 -1334.88,-598.46 -1945,-215.2 -400.33,251.47 -674.79,651.95 -750.42,1130.3 -70.62,446.72 63.02,909.04 274.64,1195.13 221.97,300.09 498.95,521.38 878.87,624.87 430.79,117.33 906.38,47.1 1240.67,-159.37 226.68,-140.02 251.83,-176.42 409.38,-343.04 253.69,-268.28 403.81,-717.64 390.06,-1114.37 -6.69,-192.99 -61.18,-469.55 -143.83,-616.97z"/>
   <path class="fil0" d="M4657.38 6659.35l-462.89 -421.3c-86.71,-70.21 -206.64,-217.26 -295.23,-240.25 -221.37,-57.42 -340.98,220.9 -183.76,361.97 32.27,28.96 66.98,50.78 96.3,82.59 40.23,43.66 53.49,52.13 93.1,85.39l458.52 425.05c61.71,50.5 58.64,59.14 91.35,87 84.07,71.63 122.42,130.61 230.74,127.34 73.5,-2.21 129.88,-45.12 167.78,-96.21 17.26,-23.26 24.99,-28.52 43.44,-50.49l1382.57 -1635.13c28.8,-33.93 56.45,-60.97 83.59,-94.69 54.6,-67.82 103.93,-162.79 35.55,-269.15 -43.52,-67.69 -144.07,-125.14 -252.36,-79.52 -54.06,22.78 -68.11,46.8 -98.53,80.43 -22.03,24.35 -21.76,22.7 -38.88,45.58l-449.02 528.43c-25.94,29.01 -54.59,67.22 -80.81,98.1l-492.3 579.02c-28.57,32.09 -53.9,66.48 -80.7,98.21l-248.46 287.63z"/>
   <path class="fil0" d="M5936.44 7520.6l1811.66 -0.84c6.24,-132.53 -132.41,-424.8 -190.83,-508.39 -199.9,-285.98 -521.15,-424.94 -837.07,-582.51l-474.75 -240.26c39.83,402.11 32.83,688.55 -151.8,1060.5l-157.21 271.5z"/>
   <path class="fil0" d="M3059.6 7260.34c-49.42,-98.19 -84.44,-193.02 -117.9,-305.13 -74.7,-250.37 -74.69,-502.41 -40.96,-766.9 -34.21,14.21 -77.14,42.59 -116.34,63.59 -384.97,206.31 -955.46,404.22 -1195.47,760.21 -48.62,72.13 -84.33,142.59 -121.9,235.58 -19.62,48.55 -73.27,219.09 -69.41,272.1l1816.59 -0.86 -154.61 -258.59z"/>
   <path class="fil0" d="M8755.84 8624.28l1.13 -1640.36 -408.51 1.22 2.02 1404.38 -1389.93 0.26 0.34 411.68c478.97,8.5 998.11,0.31 1484.66,0.44 100.3,0.03 290.09,13.16 310.29,-177.62z"/>
   <path class="fil0" d="M6961.27 753.88l1390.18 1.08 2.35 1405.34 404.93 0.95 -1.67 -1646.96c-39.45,-187.98 -196.42,-172.22 -311.51,-172.19 -486.52,0.12 -1005.72,-8.06 -1484.66,0.44l0.38 411.34z"/>
   <path class="fil0" d="M389.63 8624.37c7.55,71.3 55.26,126.86 101.2,151.98 65.7,35.9 140.95,25.55 218.57,25.54 469.66,-0.05 1029.69,-12.74 1479.02,0.8l-1.84 -413.11 -1391.5 -1.68 2.01 -1402.76 -407.75 -1.42 0.29 1640.65z"/>
   <path class="fil0" d="M388.47 514.15l-1.64 1647.1 404.91 -0.95 2.37 -1405.38 1393.05 0.98 1.22 -414.6c-449.27,13.55 -1009.36,0.86 -1478.98,0.8 -120.58,-0.02 -278.77,-19.83 -320.93,172.05z"/>
   <path class="fil1" d="M6961.27 753.88c13.56,8.45 -4.46,6.15 27.01,9.08 10.66,0.99 35.13,-0.39 47.21,-0.5 422.21,-4.07 909.77,12.14 1312.03,-1.02l-0.23 1405.34c55.81,17.41 367.55,18.48 416.63,-2.55 14.87,-78.53 3.62,-1309.06 4.69,-1549.61 0.07,-14.86 1.07,-32.97 0.62,-47.3l-12.17 -53.03 1.67 1646.96 -404.93 -0.95 -2.35 -1405.34 -1390.18 -1.08z"/>
   <path class="fil1" d="M2187.16 755.9l-1393.05 -0.98 -2.37 1405.38 -404.91 0.95 1.64 -1647.1c-27.59,53.89 -11.51,770.81 -11.51,824.27 0,125.85 -8.48,756.33 4.67,825.81 49.07,21.03 360.83,19.96 412.36,2.55l4.52 -1405.34c136.82,4.49 1349.37,10.26 1388.65,-5.54z"/>
   <path class="fil2" d="M389.63 8624.37l-0.29 -1640.65 407.75 1.42c-40.37,-24.11 -390.72,-10.24 -412.65,-2.62 -16.21,115.08 -6.66,1617.28 5.19,1641.85z"/>
   <path class="fil2" d="M8755.84 8624.28c11.56,-23.63 21.45,-1526.85 5.26,-1641.76 -42.02,-14.61 -286.08,-9.28 -363.02,-8.13l-49.62 10.75 408.51 -1.22 -1.13 1640.36z"/>
  </g>
 </g>
</svg>
