<?xml version="1.0" encoding="UTF-8"?>
<!DOCTYPE svg PUBLIC "-//W3C//DTD SVG 1.1//EN" "http://www.w3.org/Graphics/SVG/1.1/DTD/svg11.dtd">
<!-- Creator: CorelDRAW 2020 (64 Bit) -->
<svg xmlns="http://www.w3.org/2000/svg" xml:space="preserve" width="91.4398mm" height="91.44mm" version="1.1" style="shape-rendering:geometricPrecision; text-rendering:geometricPrecision; image-rendering:optimizeQuality; fill-rule:evenodd; clip-rule:evenodd"
viewBox="0 0 9143.98 9144"
 xmlns:xlink="http://www.w3.org/1999/xlink"
 xmlns:xodm="http://www.corel.com/coreldraw/odm/2003">
 <defs>
  <style type="text/css">
   <![CDATA[
    .fil0 {fill:black}
   ]]>
  </style>
 </defs>
 <g id="Camada_x0020_1">
  <metadata id="CorelCorpID_0Corel-Layer"/>
  <g id="_2392265314816">
   <path class="fil0" d="M4821.26 8495.65c-38.09,-143.85 -1170.68,-1333.35 -414.22,-2856.84 226.09,-455.3 260.03,-333.58 254.15,-685.98 -10.17,-607.18 551.28,-626.89 827.95,-1935.66 637.42,-3014.82 -2813.3,-3481.54 -3417.71,-1411.85 -154.77,529.92 -109.72,1151.9 37.11,1671.21 326.94,1155.96 1051.64,1367.2 675.37,1908.9 -158.52,228.18 -1043.3,440.09 -1773.44,982.9 -510.03,379.17 -697.54,591.43 -668.99,1241.02 56.91,1294.19 3622.92,1132.99 4479.78,1086.3z"/>
   <path class="fil0" d="M7013.08 7850.25c-74.18,44.6 74.84,18.06 -118.38,40.94l-453.92 -9.05 -5.44 -850.75 -857.44 -10.35 1.07 -595.4 869.13 -1.38 9.67 -852.66 556.15 -3.8 4.69 853.56 860.11 11.6 -7.58 584.78 -853.92 19.67 -4.14 812.84zm-2339.32 -858.38c53.17,587.95 442.24,1108.69 731.57,1336.96 413.51,326.27 876.89,474.17 1325.28,475.69l19.22 0c1150.79,-6.78 2196.85,-977.42 2039.76,-2374.68 -165.07,-1468.67 -1920.49,-2241.37 -3120.43,-1493.34 -118.78,74.04 -235.46,145.36 -308.12,221.59 -82.65,86.66 -171.36,167.26 -239.33,251.24 -309.5,382.47 -506.51,934.51 -447.95,1582.54z"/>
   <path class="fil0" d="M7013.08 7850.25l-546.52 0c4.73,-163.29 46.48,-684.2 -31.22,-818.86l5.44 850.75 453.92 9.05c193.22,-22.88 44.2,3.66 118.38,-40.94z"/>
  </g>
 </g>
</svg>
