<?xml version="1.0" encoding="UTF-8"?>
<!DOCTYPE svg PUBLIC "-//W3C//DTD SVG 1.1//EN" "http://www.w3.org/Graphics/SVG/1.1/DTD/svg11.dtd">
<!-- Creator: CorelDRAW 2020 (64 Bit) -->
<svg xmlns="http://www.w3.org/2000/svg" xml:space="preserve" width="76.1998mm" height="91.44mm" version="1.1" style="shape-rendering:geometricPrecision; text-rendering:geometricPrecision; image-rendering:optimizeQuality; fill-rule:evenodd; clip-rule:evenodd"
viewBox="0 0 7619.98 9144"
 xmlns:xlink="http://www.w3.org/1999/xlink"
 xmlns:xodm="http://www.corel.com/coreldraw/odm/2003">
 <defs>
  <style type="text/css">
   <![CDATA[
    .fil1 {fill:none}
    .fil0 {fill:black}
    .fil2 {fill:black}
   ]]>
  </style>
 </defs>
 <g id="Camada_x0020_1">
  <metadata id="CorelCorpID_0Corel-Layer"/>
  <g id="_2392269447248">
   <g>
    <path class="fil0" d="M2533.06 6064.76c-192.21,15.86 -905.39,276.65 -1063.84,359.95 205.66,19.54 505.97,2.16 721.97,2.14 127.29,0 241.67,-20.87 283.76,81.78 41.37,100.93 -25.47,189.99 -118.31,199.34l-1441.22 0.75c55.5,-49.61 179.44,-108.2 257.31,-147.88l202.31 -97.49c11.63,-5.03 26.32,-10.52 36.48,-16.23l-552.68 -21.43c-23.23,-207.71 22.8,-1459.99 -15.73,-1548.96 -54.57,-126.03 -266.25,-118.29 -269.84,81.18 -6.18,342.91 0.32,692.76 0.32,1036.47 0,785.06 -49.73,697.54 322.52,716.24 -145.28,117.67 -282.35,170.95 -425,360.78 -183.15,243.76 -199.5,668.73 -200.82,974.19 -0.7,163.12 -30.44,232.28 93.39,304.75 161.65,94.59 378.27,148.43 583.89,193.85 1575.02,347.95 4163.15,349.41 5737.3,-2.91 192.08,-42.98 450.54,-107.35 586.68,-201.45 110.19,-76.17 77.2,-153.21 76.89,-314.95 -0.24,-121.33 -1.24,-246.24 -13.28,-365.29 -20.13,-199.06 -91.76,-459.46 -189.2,-590.62 -58.32,-78.5 -119.51,-135.88 -197.01,-196.65l-201.42 -140.84c-24.91,-19.35 -7.51,-3.54 -23.41,-22.32 210.75,0.67 322.84,28.75 321.86,-206.96 -2.08,-501.75 13.9,-1071.51 0.15,-1554.27 -5.38,-188.65 -225.99,-199.8 -273.81,-60.37 -30.66,89.45 13.18,1356.28 -11.86,1539.14l-581.6 1.9c66.52,53.03 370.88,161.11 525.19,276.96 -141.46,23.3 -542.86,3.6 -721.22,3.6 -219.66,0 -503.06,15.73 -714.88,-0.71 -100.87,-7.83 -175.2,-111.86 -118,-210.47 53.78,-92.73 163.19,-71.13 283.82,-71.13 235.54,0.02 480.15,6.39 714.54,-0.63 -124.77,-82.88 -884.91,-339.68 -1069.28,-364.58 -33.52,153.47 -441.69,974.3 -514.67,1104.37 -140.01,249.52 -480.62,858.09 -756.77,857.57 -267.92,-0.51 -619.24,-613.75 -754.51,-860.47 -97.1,-177.11 -181.14,-353.3 -269.83,-538.57l-250.19 -559.78z"/>
    <path class="fil1" d="M5307.39 2818.98c-113.55,-14.04 -261.33,-9.56 -380.72,-16.73 -628.68,-37.8 -1400.61,-163.29 -1953.67,-459.1l-253.47 -149.58 -156.3 453.77c-60.87,145.91 -124.62,287.76 -198.88,422.67 -151.67,275.53 -135.94,161.14 -137.48,489.85 -3.94,839.81 452.19,1706.62 1022.37,2091.5 399.24,269.51 728.53,269.25 1143.51,-14.32 34.11,-23.31 58.41,-42.91 87.22,-68.11 183.21,-160.42 220.64,-202.86 376.03,-400.87 268.4,-342.03 475.91,-875.18 523.6,-1340.35 21.23,-207.13 -2.77,-549.92 6.2,-602.18"/>
    <path class="fil0" d="M5611.68 3309.16c-8.12,11.82 -2.35,-1.15 -11.24,22.97 -14.95,40.56 -6.66,71.91 -41.53,123.72 -119.31,13.55 -191.35,-196.07 -165.41,-267.96l-7.7 37.64c-8.97,52.26 15.03,395.05 -6.2,602.18 -47.69,465.17 -255.2,998.32 -523.6,1340.35 -155.39,198.01 -192.82,240.45 -376.03,400.87 -28.81,25.2 -53.11,44.8 -87.22,68.11 -414.98,283.57 -744.27,283.83 -1143.51,14.32 -570.18,-384.88 -1026.31,-1251.69 -1022.37,-2091.5 1.54,-328.71 -14.19,-214.32 137.48,-489.85 74.26,-134.91 138.01,-276.76 198.88,-422.67l156.3 -453.77 253.47 149.58c553.06,295.81 1324.99,421.3 1953.67,459.1 119.39,7.17 267.17,2.69 380.72,16.73 3.13,-125.5 -17.13,-177.11 61.8,-256.1 41.51,-41.53 137.2,-101.98 209.11,-118.48l8.34 -27.11c21.04,-106.94 -104.91,-381.99 -153.22,-462.8 -243.81,-408 -619.42,-635.88 -1113.79,-760.83 -455.15,-115.04 -1162.53,-120.59 -1580.15,127.82 -184.68,109.84 -181.43,144.86 -264.36,367.66 -432.41,33.67 -495.74,874.7 -481.62,1280.36 3.8,109.36 20.17,234.88 15.21,341.73 -11.03,237.77 -11.57,445.88 23.98,676.34 124.79,809.17 574.64,1461.34 1017.26,1800.68 487.32,373.61 1015.42,391.46 1527.4,-7.92 36.67,-28.61 63.16,-54.01 96.53,-79.53l180.64 -171.49c218.23,-223.7 464.47,-647.95 591.39,-993.87 154.31,-420.55 177.69,-745.97 165.77,-1226.28z"/>
    <path class="fil0" d="M6763.69 625.98l-0.03 1431.95c-1.33,258.66 189.45,212.14 240.81,161.54 70.32,-69.3 41.41,-315.13 41.41,-431.11l0 -953.09c0,-548.25 50.61,-492 -472.55,-492 -317.69,0 -635.39,0 -953.08,0 -114.73,0 -374.28,-23.98 -443.82,37.7 -49.23,43.67 -109.68,245.61 143.07,245.32l1444.19 -0.31z"/>
    <path class="fil0" d="M856.46 627.95c306.68,-19.87 1049.06,-3.35 1428.15,-1.77 82.37,0.34 140.32,-9.62 177.03,-59.38 36.71,-49.77 34.31,-120.1 -6.66,-170.94 -48.6,-60.28 -100.42,-52.99 -191.27,-52.65l-1191.36 0.06c-556.65,0 -498.76,-48.56 -498.76,471.28l0 953.1c0,113.78 -28.9,369.79 34.46,443.42 57.08,66.34 248.96,99.2 248.52,-142.84l-0.11 -1440.28z"/>
    <path class="fil1" d="M5385.8 3225.53l7.7 -37.64c-25.94,71.89 46.1,281.51 165.41,267.96 34.87,-51.81 26.58,-83.16 41.53,-123.72 8.89,-24.12 3.12,-11.15 11.24,-22.97 -11.01,-143.08 13.35,-441.33 0.65,-671.44 -2.42,-43.74 -5.1,-184.94 -25.69,-220.43l-8.34 27.11c-71.91,16.5 -167.6,76.95 -209.11,118.48 -78.93,78.99 -58.67,130.6 -61.8,256.1"/>
   </g>
   <path class="fil2" d="M5388.13 3210.86c0.77,-8.62 2.33,-16.37 4.7,-22.97l-4.7 22.97zm170.11 244.99c34.87,-51.81 26.57,-83.16 41.52,-123.72 8.9,-24.12 3.12,-11.15 11.25,-22.97 -6.01,-78.05 -1.49,-202.27 1.8,-336.41 -2.65,-159.65 -9.88,-354.51 -26.85,-555.46l-8.33 27.11c-71.91,16.5 -167.61,76.95 -209.11,118.48 -77.07,77.13 -59.56,128.15 -61.62,247.37 55.37,242.48 71.68,377.77 76.39,441.05 0.3,-11.49 0.89,-20.25 1.83,-25.77l3.01 -14.67c-7.63,85.47 61.73,257.3 170.11,244.99z"/>
  </g>
 </g>
</svg>
